<?xml version="1.0" encoding="UTF-8" standalone="no"?>
<svg
   version="1.0"
   width="509.000000pt"
   height="176.000000pt"
   viewBox="0 0 509.000000 176.000000"
   preserveAspectRatio="xMidYMid meet"
   id="svg8"
   sodipodi:docname="logo.svg"
   inkscape:version="1.3.2 (091e20e, 2023-11-25, custom)"
   xmlns:inkscape="http://www.inkscape.org/namespaces/inkscape"
   xmlns:sodipodi="http://sodipodi.sourceforge.net/DTD/sodipodi-0.dtd"
   xmlns="http://www.w3.org/2000/svg"
   xmlns:svg="http://www.w3.org/2000/svg">
  <defs
     id="defs8" />
  <sodipodi:namedview
     id="namedview8"
     pagecolor="#ffffff"
     bordercolor="#000000"
     borderopacity="0.25"
     inkscape:showpageshadow="2"
     inkscape:pageopacity="0.0"
     inkscape:pagecheckerboard="0"
     inkscape:deskcolor="#d1d1d1"
     inkscape:document-units="pt"
     inkscape:zoom="1.2794604"
     inkscape:cx="318.88443"
     inkscape:cy="121.53561"
     inkscape:window-width="1920"
     inkscape:window-height="1017"
     inkscape:window-x="-8"
     inkscape:window-y="-8"
     inkscape:window-maximized="1"
     inkscape:current-layer="svg8" />
  <g
     transform="matrix(0.1,0,0,-0.09310998,2.3447384,171.35509)"
     fill="#000000"
     stroke="none"
     id="g8"
     style="stroke-width:1.03634">
    <path
       d="m 102,1543 3,-68 143,-3 142,-3 V 830 190 h 70 70 v 640 639 l 143,3 142,3 v 65 65 l -358,3 -358,2 z"
       id="path1"
       style="stroke-width:1.03634" />
    <path
       d="m 930,1500 v -110 h 70 70 v 110 110 h -70 -70 z"
       id="path2"
       style="stroke-width:1.03634" />
    <path
       d="m 4790,1500 v -110 h 65 65 v 110 110 h -65 -65 z"
       id="path3"
       style="stroke-width:1.03634" />
    <path
       d="m 1629,1287 c -55,-16 -126,-56 -158,-91 -14,-14 -28,-26 -32,-26 -4,0 -9,21 -11,48 l -3,47 h -65 -65 V 730 195 l 67,-3 66,-3 4,363 c 4,346 5,366 26,418 30,76 73,124 140,157 51,25 67,28 162,28 90,0 112,-3 153,-24 57,-27 100,-82 124,-155 14,-43 17,-109 21,-418 l 4,-368 h 70 70 l -5,382 c -5,405 -8,431 -57,533 -29,61 -115,136 -186,164 -73,29 -251,39 -325,18 z"
       id="path4"
       style="stroke-width:1.03634" />
    <path
       d="m 2761,1284 c -139,-37 -286,-158 -349,-286 -137,-279 -38,-620 222,-767 194,-110 461,-83 625,65 l 51,46 v -76 -76 h 70 70 l -2,537 -3,538 h -65 -65 l -3,-70 -3,-71 -49,48 c -91,88 -205,128 -355,127 -49,0 -114,-7 -144,-15 z m 270,-129 c 94,-33 193,-129 241,-231 36,-77 48,-194 29,-286 -28,-132 -120,-252 -241,-311 -58,-29 -73,-32 -155,-32 -80,0 -97,4 -157,32 -159,75 -248,217 -248,398 0,131 36,226 120,318 107,117 270,161 411,112 z"
       id="path5"
       style="stroke-width:1.03634" />
    <path
       d="m 4017,1290 c -52,-13 -114,-46 -164,-87 l -43,-34 v 45 c 0,52 -13,60 -91,54 l -44,-3 -3,-537 -2,-538 h 69 70 l 3,372 c 3,368 3,374 27,426 32,72 107,137 179,158 71,21 211,15 262,-11 76,-38 118,-97 139,-193 7,-33 11,-182 11,-402 V 190 h 70 70 v 358 c 0,196 -5,386 -10,422 -13,82 -62,180 -113,226 -22,20 -69,50 -105,67 -60,28 -77,31 -177,34 -60,1 -127,-2 -148,-7 z"
       id="path6"
       style="stroke-width:1.03634" />
    <path
       d="m 937,1264 c -4,-4 -7,-247 -7,-541 V 190 h 70 70 l -2,537 -3,538 -60,3 c -34,2 -64,0 -68,-4 z"
       id="path7"
       style="stroke-width:1.03634" />
    <path
       d="M 4790,730 V 190 h 65 65 l -2,537 -3,538 -62,3 -63,3 z"
       id="path8"
       style="stroke-width:1.03634" />
  </g>
</svg>
