<?xml version="1.0" standalone="no"?>
<!DOCTYPE svg PUBLIC "-//W3C//DTD SVG 20010904//EN"
 "http://www.w3.org/TR/2001/REC-SVG-20010904/DTD/svg10.dtd">
<svg version="1.0" xmlns="http://www.w3.org/2000/svg"
 width="763.000000pt" height="307.000000pt" viewBox="0 0 763.000000 307.000000"
 preserveAspectRatio="xMidYMid meet">

<g transform="translate(0.000000,307.000000) scale(0.100000,-0.100000)"
fill="#000000" stroke="none">
<path d="M1240 3044 c-250 -36 -454 -133 -577 -275 -114 -130 -193 -341 -193
-516 l0 -83 -72 -54 c-81 -59 -217 -196 -264 -266 -98 -142 -146 -331 -124
-489 21 -151 60 -237 158 -342 l57 -62 0 -166 c1 -138 5 -180 23 -249 58 -222
212 -401 412 -480 139 -55 386 -79 554 -52 33 5 99 14 146 21 588 80 1002 426
1245 1039 72 183 112 311 249 797 79 279 121 383 228 561 27 45 55 82 61 82 7
0 39 -5 72 -11 350 -60 531 -72 718 -44 293 44 484 178 547 384 26 82 26 121
2 121 -15 0 -22 -13 -32 -57 -32 -143 -113 -250 -234 -307 -105 -51 -168 -60
-369 -53 -144 5 -200 11 -342 41 -198 41 -257 57 -262 72 -6 19 159 168 219
197 64 31 76 43 59 60 -9 9 -31 2 -89 -28 -58 -30 -98 -61 -164 -127 -47 -48
-94 -88 -105 -88 -18 0 -239 64 -343 100 -53 18 -519 167 -610 195 -89 28
-247 64 -342 79 -123 20 -490 20 -628 0z m491 -184 c171 -21 180 -23 784 -188
182 -50 383 -102 448 -117 64 -15 117 -31 117 -35 0 -4 -23 -45 -51 -91 -48
-81 -265 -513 -345 -689 -70 -155 -292 -597 -349 -696 -154 -266 -299 -459
-471 -625 -179 -171 -366 -281 -574 -335 -94 -25 -123 -28 -275 -28 -154 -1
-177 1 -245 24 -87 28 -204 103 -255 163 -118 136 -180 332 -177 551 1 38 5
73 10 78 4 4 37 -4 73 -18 99 -41 192 -63 339 -81 222 -26 509 5 731 78 203
67 389 179 529 319 152 152 231 297 266 495 37 205 -62 417 -233 503 -218 111
-598 65 -955 -113 -117 -59 -245 -139 -318 -200 -23 -19 -46 -35 -50 -35 -5 0
-33 27 -63 61 -61 67 -128 192 -131 242 -1 31 3 34 91 78 137 69 381 143 533
161 17 2 25 9 25 23 0 19 -6 20 -80 17 -141 -6 -298 -56 -491 -156 -45 -23
-87 -40 -93 -38 -14 5 -14 76 0 144 66 306 460 512 990 517 75 0 174 -4 220
-9z m108 -681 c228 -39 361 -199 361 -434 0 -193 -98 -402 -267 -569 -174
-174 -423 -299 -693 -347 -109 -20 -462 -18 -560 4 -98 21 -194 51 -264 82
-65 29 -67 35 -37 155 55 221 179 456 323 614 l53 59 60 -31 c113 -56 190 -73
343 -73 167 0 302 26 302 57 0 18 -14 18 -119 -2 -116 -22 -311 -15 -397 14
-75 25 -144 59 -144 71 0 16 101 100 201 166 261 176 610 273 838 234z m-1320
-155 c41 -86 76 -139 139 -205 l34 -37 -82 -88 c-148 -161 -265 -361 -325
-559 -15 -49 -32 -94 -37 -100 -15 -16 -104 90 -144 170 -44 90 -58 167 -51
280 11 168 73 301 209 450 53 59 192 175 208 175 5 0 27 -39 49 -86z"/>
<path d="M3382 1734 c-77 -54 -64 -180 21 -202 117 -31 201 117 112 196 -31
27 -99 30 -133 6z"/>
<path d="M7329 1735 c-55 -30 -75 -121 -38 -169 77 -98 252 11 195 122 -9 17
-26 38 -38 46 -28 20 -84 20 -119 1z"/>
<path d="M3205 1360 c-16 -4 -40 -12 -52 -18 -46 -25 -115 -121 -184 -257 -65
-127 -151 -282 -199 -360 -12 -19 -16 -35 -10 -44 6 -11 18 1 45 44 50 78 139
236 206 365 83 160 177 245 195 175 8 -31 -22 -122 -103 -310 -117 -271 -151
-391 -138 -494 6 -44 14 -62 40 -88 29 -29 39 -33 89 -33 155 0 274 106 453
405 82 137 126 225 127 255 1 38 92 204 137 250 40 41 66 49 87 28 17 -17 15
-63 -8 -143 -20 -73 -157 -417 -254 -637 -31 -70 -56 -132 -56 -139 0 -18 119
-3 149 19 15 11 45 67 81 152 145 346 310 614 414 675 49 29 101 33 110 9 19
-48 -6 -115 -116 -317 -95 -172 -139 -299 -139 -401 -1 -87 16 -127 60 -146
45 -18 147 -9 206 20 60 28 167 132 221 214 l39 59 6 -94 c9 -154 54 -209 171
-209 42 0 64 6 99 28 53 34 117 104 172 190 22 34 43 62 47 62 4 0 6 -35 6
-77 -1 -88 22 -163 57 -188 27 -19 97 -19 140 -1 47 20 175 134 234 207 82
103 263 413 249 426 -9 9 90 191 131 241 96 117 144 53 89 -118 -29 -91 -150
-391 -240 -594 -36 -82 -66 -153 -66 -157 0 -12 54 -11 105 1 52 12 74 39 114
141 122 311 313 628 422 701 51 34 103 38 119 8 17 -32 -3 -88 -114 -305 -122
-239 -137 -282 -144 -402 l-4 -93 36 -36 37 -37 77 5 c54 3 91 12 122 28 67
34 153 122 229 234 85 125 221 373 221 403 0 34 89 191 137 241 30 32 47 43
65 40 40 -5 30 -72 -34 -228 -31 -74 -77 -186 -102 -247 -60 -145 -79 -221
-80 -308 0 -116 39 -165 131 -165 142 0 264 100 412 339 95 153 173 302 167
318 -5 12 -9 13 -21 3 -8 -7 -15 -16 -15 -20 0 -14 -141 -262 -193 -340 -28
-41 -76 -101 -106 -134 -140 -147 -231 -164 -231 -42 0 78 27 162 145 451 66
162 105 291 105 345 0 104 -137 138 -234 58 -50 -41 -81 -89 -176 -273 -94
-182 -121 -232 -163 -293 -16 -24 -30 -56 -31 -71 -3 -37 -57 -110 -149 -199
-77 -75 -134 -107 -168 -97 -16 5 -19 16 -19 70 0 75 47 224 143 455 92 223
107 302 66 353 -32 42 -86 53 -150 32 -46 -15 -70 -34 -161 -127 -60 -59 -108
-105 -108 -101 0 5 7 51 16 104 16 93 16 98 -2 135 -16 33 -26 41 -64 50 -57
14 -106 2 -154 -38 -49 -40 -79 -86 -179 -275 -47 -89 -107 -197 -133 -240
-26 -43 -47 -87 -46 -98 4 -57 -237 -295 -299 -295 -46 0 -62 89 -35 200 20
85 59 176 177 414 60 121 107 221 106 223 -2 2 -48 -11 -101 -28 l-97 -32 -36
-81 c-74 -163 -233 -473 -282 -546 -97 -147 -172 -202 -227 -165 -34 22 -44
54 -44 137 0 94 31 209 90 334 59 126 115 210 191 284 116 115 199 153 366
170 59 6 109 13 112 15 13 13 -66 29 -144 28 -313 -2 -567 -189 -691 -510 -62
-160 -205 -354 -320 -434 -56 -38 -87 -45 -109 -23 -35 36 2 183 127 494 74
184 98 257 98 303 0 72 -66 125 -139 112 -69 -12 -130 -59 -248 -188 -29 -31
-54 -57 -56 -57 -2 0 2 30 9 68 14 73 17 144 8 180 -13 48 -119 71 -181 38
-64 -33 -113 -101 -223 -311 -41 -77 -98 -180 -127 -228 -56 -93 -60 -103 -41
-109 14 -5 -64 -119 -131 -191 -50 -54 -154 -127 -181 -127 -34 0 -50 28 -50
87 0 73 17 129 118 383 88 223 132 362 132 417 0 63 -78 109 -155 93z"/>
</g>
</svg>
